<?xml version="1.0" encoding="UTF-8" standalone="no"?>
<svg
   xmlns:dc="http://purl.org/dc/elements/1.1/"
   xmlns:cc="http://creativecommons.org/ns#"
   xmlns:rdf="http://www.w3.org/1999/02/22-rdf-syntax-ns#"
   xmlns:svg="http://www.w3.org/2000/svg"
   xmlns="http://www.w3.org/2000/svg"
   xmlns:sodipodi="http://sodipodi.sourceforge.net/DTD/sodipodi-0.dtd"
   xmlns:inkscape="http://www.inkscape.org/namespaces/inkscape"
   width="100%"
   height="100%"
   viewBox="0 0 4209 659"
   version="1.1"
   xml:space="preserve"
   style="fill-rule:evenodd;clip-rule:evenodd;stroke-linejoin:round;stroke-miterlimit:2;"
   id="svg10"
   sodipodi:docname="logo.svg"
   inkscape:version="1.0.1 (3bc2e813f5, 2020-09-07)"><metadata
     id="metadata16"><rdf:RDF><cc:Work
         rdf:about=""><dc:format>image/svg+xml</dc:format><dc:type
           rdf:resource="http://purl.org/dc/dcmitype/StillImage" /></cc:Work></rdf:RDF></metadata><defs
     id="defs14" /><sodipodi:namedview
     pagecolor="#ffffff"
     bordercolor="#666666"
     borderopacity="1"
     objecttolerance="10"
     gridtolerance="10"
     guidetolerance="10"
     inkscape:pageopacity="0"
     inkscape:pageshadow="2"
     inkscape:window-width="950"
     inkscape:window-height="1007"
     id="namedview12"
     showgrid="false"
     inkscape:zoom="0.093303299"
     inkscape:cx="2104.5"
     inkscape:cy="329.5"
     inkscape:window-x="960"
     inkscape:window-y="0"
     inkscape:window-maximized="0"
     inkscape:current-layer="svg10" /><g
     id="g4"><path
       id="path2"
       d="M329.743,6.053c178.331,-0 323.114,144.782 323.114,323.114c-0,178.331 -144.783,323.113 -323.114,323.113c-178.331,0 -323.114,-144.782 -323.114,-323.113c0,-178.332 144.783,-323.114 323.114,-323.114Zm0,29.403c162.103,0 293.71,131.607 293.71,293.711c0,162.103 -131.607,293.71 -293.71,293.71c-162.103,-0 -293.71,-131.607 -293.71,-293.71c-0,-162.104 131.607,-293.711 293.71,-293.711Z"
       style="fill:#31c5f0;" /><path
       id="path4"
       d="M332.065,100.323c-2.722,-0 -5.444,1.037 -7.52,3.112l-223.722,223.724c-4.151,4.15 -4.151,10.89 -0,15.04l212.843,212.843c4.151,4.151 10.89,4.151 15.04,0l213.835,-213.834l0,-34.817l-8.752,-8.751l-1.707,1.707l-19.585,-19.586l-7.381,0.232l-2.983,-2.983l-66.673,66.673c-4.148,4.147 -10.881,4.147 -15.029,-0l-106.365,-106.366c-4.148,-4.147 -4.148,-10.881 -0,-15.029l72.186,-72.186l-6.876,-6.876l-1.636,1.636l-19.599,-19.6l-7.219,0.246l-2.611,-2.612l5.437,-5.298l-14.163,-14.163c-2.075,-2.075 -4.797,-3.112 -7.52,-3.112Zm-4.933,21.413l-6.6,16.536l-2.015,-2.757l-6.746,6.746l-5.157,-5.157l6.683,-6.682l-2.847,-2.013l16.682,-6.673Zm119.9,110.867l-62.123,62.123l30.77,30.77l62.124,-62.123l-30.771,-30.77Zm-188.593,2.221c2.506,0 5.012,0.956 6.923,2.866l152.231,152.231c3.821,3.822 3.821,10.026 0,13.847l-112.032,112.033c-3.821,3.821 -10.026,3.821 -13.847,-0l-152.231,-152.232c-3.821,-3.821 -3.821,-10.026 -0,-13.847l112.032,-112.032c1.911,-1.91 4.417,-2.866 6.924,-2.866Zm-132.307,77.179l11.314,11.313l-9.09,9.089l-11.314,-11.313l9.09,-9.089Zm205.981,205.907l11.313,11.314l-9.089,9.09l-11.314,-11.314l9.09,-9.09Z"
       style="fill:#31c5f0;" /></g><path
     id="path44"
     style="font-size:421.704px;font-family:Ubuntu, sans-serif;fill:#ffffff"
     d="m 4111.1562,424.74284 q 13.9162,0 24.4588,-0.4217 10.9643,-0.84341 18.1333,-2.53023 v -65.36412 q -4.2171,-2.10852 -13.9162,-3.37363 -9.2775,-1.68682 -22.7721,-1.68682 -8.8558,0 -18.9766,1.26511 -9.6992,1.26512 -18.1333,5.48216 -8.0124,3.79533 -13.4945,10.9643 -5.4822,6.74727 -5.4822,18.13327 0,21.0852 13.4945,29.51928 13.4946,8.01238 36.6883,8.01238 z m -3.3737,-196.51407 q 23.6155,0 39.6402,6.32556 16.4465,5.90386 26.1457,17.28987 10.1209,10.9643 14.3379,26.56735 4.217,15.18134 4.217,33.73632 v 137.0538 q -5.0604,0.84341 -14.3379,2.53023 -8.8558,1.26511 -20.2418,2.53022 -11.386,1.26511 -24.8805,2.10852 -13.0728,1.26511 -26.1457,1.26511 -18.5549,0 -34.158,-3.79533 -15.603,-3.79534 -26.989,-11.80771 -11.3861,-8.43409 -17.7116,-21.92861 -6.3256,-13.49453 -6.3256,-32.47121 0,-18.13327 7.169,-31.2061 7.5907,-13.07282 20.2418,-21.0852 12.6511,-8.01238 29.5193,-11.80771 16.8681,-3.79534 35.4231,-3.79534 5.9039,0 12.2294,0.84341 6.3256,0.4217 11.8077,1.68682 5.9039,0.8434 10.1209,1.68681 4.2171,0.84341 5.9039,1.26511 v -10.9643 q 0,-9.69919 -2.1085,-18.97668 -2.1086,-9.69919 -7.5907,-16.86816 -5.4822,-7.59067 -15.1814,-11.80771 -9.2774,-4.63875 -24.4588,-4.63875 -19.3984,0 -34.158,2.95193 -14.3379,2.53022 -21.5069,5.48215 l -4.6388,-32.47121 q 7.5907,-3.37363 25.3023,-6.32556 17.7115,-3.37363 38.375,-3.37363 z m -219.2919,224.76824 q -11.8078,-30.36269 -25.3023,-69.15946 -13.0728,-39.21847 -24.0371,-81.38887 -10.9643,42.1704 -24.0371,81.38887 -13.0729,38.79677 -24.8806,69.15946 h -34.158 q -19.3984,-43.43551 -37.9534,-99.10044 -18.5549,-55.66493 -35.0014,-120.18565 h 42.1704 q 4.217,19.82009 10.1209,43.01381 5.9039,23.19372 12.2294,46.38744 6.7473,23.19372 13.9162,44.70063 7.169,21.5069 13.4946,37.53166 7.1689,-19.82009 13.9162,-41.7487 7.169,-22.35031 13.4945,-44.70063 6.3256,-22.77201 11.8077,-44.27892 5.9039,-21.92861 10.1209,-40.90529 h 32.4713 q 3.7953,18.97668 9.2774,40.90529 5.4822,21.50691 11.8078,44.27892 6.3255,22.35032 13.0728,44.70063 7.1689,21.92861 14.3379,41.7487 6.3256,-16.02476 13.0728,-37.53166 7.169,-21.50691 13.9163,-44.70063 6.7472,-23.19372 12.6511,-46.38744 5.9038,-23.19372 10.1209,-43.01381 h 40.4836 q -16.4465,64.52072 -35.0015,120.18565 -18.5549,55.66493 -37.9533,99.10044 z m -320.0807,-28.25417 q 13.9162,0 24.4588,-0.4217 10.9643,-0.84341 18.1333,-2.53023 v -65.36412 q -4.217,-2.10852 -13.9162,-3.37363 -9.2775,-1.68682 -22.772,-1.68682 -8.8558,0 -18.9767,1.26511 -9.6992,1.26512 -18.1333,5.48216 -8.0124,3.79533 -13.4945,10.9643 -5.4822,6.74727 -5.4822,18.13327 0,21.0852 13.4946,29.51928 13.4945,8.01238 36.6882,8.01238 z m -3.3736,-196.51407 q 23.6154,0 39.6401,6.32556 16.4465,5.90386 26.1457,17.28987 10.1209,10.9643 14.3379,26.56735 4.2171,15.18134 4.2171,33.73632 v 137.0538 q -5.0605,0.84341 -14.338,2.53023 -8.8557,1.26511 -20.2418,2.53022 -11.386,1.26511 -24.8805,2.10852 -13.0728,1.26511 -26.1456,1.26511 -18.555,0 -34.1581,-3.79533 -15.603,-3.79534 -26.989,-11.80771 -11.386,-8.43409 -17.7116,-21.92861 -6.3256,-13.49453 -6.3256,-32.47121 0,-18.13327 7.169,-31.2061 7.5907,-13.07282 20.2418,-21.0852 12.6511,-8.01238 29.5193,-11.80771 16.8681,-3.79534 35.4231,-3.79534 5.9039,0 12.2294,0.84341 6.3256,0.4217 11.8078,1.68682 5.9038,0.8434 10.1208,1.68681 4.2171,0.84341 5.9039,1.26511 v -10.9643 q 0,-9.69919 -2.1085,-18.97668 -2.1085,-9.69919 -7.5907,-16.86816 -5.4821,-7.59067 -15.1813,-11.80771 -9.2775,-4.63875 -24.4589,-4.63875 -19.3983,0 -34.158,2.95193 -14.3379,2.53022 -21.5069,5.48215 l -4.6387,-32.47121 q 7.5906,-3.37363 25.3022,-6.32556 17.7116,-3.37363 38.3751,-3.37363 z m -120.185,228.98528 q -36.2665,-0.84341 -51.4479,-15.60305 -15.1813,-14.75964 -15.1813,-45.96574 v -263.1433 l 39.2184,-6.74726 v 263.565 q 0,9.6992 1.6869,16.02476 1.6868,6.32556 5.4821,10.12089 3.7954,3.79534 10.1209,5.90386 6.3256,1.68681 15.6031,2.95193 z m -198.622,-223.50313 h 83.0757 v 32.89292 h -83.0757 V 367.8128 q 0,16.44646 2.5302,27.41076 2.5303,10.5426 7.5907,16.86816 5.0605,5.90386 12.6511,8.43408 7.5907,2.53022 17.7116,2.53022 17.7116,0 28.2542,-3.79533 10.9643,-4.21704 15.1813,-5.90386 l 7.5907,32.47121 q -5.9039,2.95193 -20.6635,7.16897 -14.7596,4.63874 -33.7363,4.63874 -22.3503,0 -37.11,-5.48215 -14.3379,-5.90385 -23.1937,-17.28986 -8.8558,-11.38601 -12.6511,-27.83247 -3.3737,-16.86816 -3.3737,-38.79677 V 172.56384 l 39.2185,-6.74726 z m -182.5977,191.03192 q 13.9162,0 24.4588,-0.4217 10.9643,-0.84341 18.1333,-2.53023 v -65.36412 q -4.2171,-2.10852 -13.9162,-3.37363 -9.2775,-1.68682 -22.7721,-1.68682 -8.8557,0 -18.9766,1.26511 -9.6992,1.26512 -18.1333,5.48216 -8.0124,3.79533 -13.4945,10.9643 -5.4822,6.74727 -5.4822,18.13327 0,21.0852 13.4945,29.51928 13.4946,8.01238 36.6883,8.01238 z m -3.3737,-196.51407 q 23.6155,0 39.6402,6.32556 16.4465,5.90386 26.1457,17.28987 10.1209,10.9643 14.3379,26.56735 4.2171,15.18134 4.2171,33.73632 v 137.0538 q -5.0605,0.84341 -14.338,2.53023 -8.8558,1.26511 -20.2418,2.53022 -11.386,1.26511 -24.8805,2.10852 -13.0728,1.26511 -26.1457,1.26511 -18.5549,0 -34.158,-3.79533 -15.603,-3.79534 -26.989,-11.80771 -11.3861,-8.43409 -17.7116,-21.92861 -6.3256,-13.49453 -6.3256,-32.47121 0,-18.13327 7.169,-31.2061 7.5907,-13.07282 20.2418,-21.0852 12.6511,-8.01238 29.5193,-11.80771 16.8681,-3.79534 35.4231,-3.79534 5.9039,0 12.2294,0.84341 6.3256,0.4217 11.8077,1.68682 5.9039,0.8434 10.1209,1.68681 4.2171,0.84341 5.9039,1.26511 v -10.9643 q 0,-9.69919 -2.1085,-18.97668 -2.1086,-9.69919 -7.5907,-16.86816 -5.4822,-7.59067 -15.1814,-11.80771 -9.2774,-4.63875 -24.4588,-4.63875 -19.3984,0 -34.158,2.95193 -14.3379,2.53022 -21.5069,5.48215 l -4.6388,-32.47121 q 7.5907,-3.37363 25.3023,-6.32556 17.7116,-3.37363 38.375,-3.37363 z m -304.4694,184.28465 q -4.217,-10.12089 -11.386,-25.72394 -6.7473,-15.60305 -14.7596,-33.73632 -8.0124,-18.13327 -17.2899,-37.10995 -8.8558,-19.39839 -16.8682,-36.26655 -8.0123,-17.28986 -15.1813,-30.78439 -6.7473,-13.49453 -10.9643,-20.6635 -4.6388,49.76108 -7.5907,107.95623 -2.9519,57.77345 -5.0604,116.81201 h -40.0619 q 1.6868,-37.95336 3.7953,-76.32843 2.1085,-38.79677 4.6388,-75.90672 2.9519,-37.53166 5.9038,-72.95479 3.3736,-35.42314 7.169,-67.05094 h 35.8448 q 11.386,18.55498 24.4589,43.85722 13.0728,25.30224 26.1456,53.1347 13.0728,27.41076 25.3022,55.24323 12.2295,27.41076 22.3504,50.18278 10.1209,-22.77202 22.3503,-50.18278 12.2294,-27.83247 25.3022,-55.24323 13.0728,-27.83246 26.1457,-53.1347 13.0728,-25.30224 24.4588,-43.85722 h 35.8448 q 14.338,141.27084 21.5069,292.24088 h -40.0618 q -2.1086,-59.03856 -5.0605,-116.81201 -2.9519,-58.19515 -7.5907,-107.95623 -4.217,7.16897 -11.386,20.6635 -6.7472,13.49453 -14.7596,30.78439 -8.0124,16.86816 -17.2899,36.26655 -8.8558,18.97668 -16.8681,37.10995 -8.0124,18.13327 -15.1814,33.73632 -6.7472,15.60305 -10.9643,25.72394 z m -466.4041,81.38888 q 4.6387,2.10852 11.8077,3.79533 7.5907,2.10852 14.7596,2.10852 23.1938,0 36.2666,-10.5426 13.0728,-10.12089 23.6154,-33.31461 -26.5673,-50.60448 -49.7611,-107.11282 -22.772,-56.93004 -37.9533,-115.1252 h 42.1704 q 4.6387,18.97668 10.9643,40.90529 6.7472,21.92861 14.7596,45.12233 8.0124,23.19372 17.2899,46.38744 9.2775,23.19372 19.3984,44.70063 16.0247,-44.27892 27.8324,-87.71444 11.8077,-43.43551 22.3503,-89.40125 h 40.4836 q -15.1813,61.99049 -33.7363,119.34224 -18.555,56.93004 -40.0619,106.69111 -8.4341,18.97668 -17.7115,32.47121 -8.8558,13.91623 -19.8201,22.77202 -10.9643,8.85578 -24.8806,13.07282 -13.4945,4.21704 -30.7844,4.21704 -4.6387,0 -9.6992,-0.8434 -5.0604,-0.42171 -10.1208,-1.68682 -4.6388,-0.84341 -8.8558,-2.10852 -3.7954,-1.26511 -5.4822,-2.10852 z M 2182.2722,233.71092 h 83.0757 v 32.89292 h -83.0757 V 367.8128 q 0,16.44646 2.5302,27.41076 2.5302,10.5426 7.5907,16.86816 5.0604,5.90386 12.6511,8.43408 7.5907,2.53022 17.7115,2.53022 17.7116,0 28.2542,-3.79533 10.9643,-4.21704 15.1814,-5.90386 l 7.5906,32.47121 q -5.9038,2.95193 -20.6635,7.16897 -14.7596,4.63874 -33.7363,4.63874 -22.3503,0 -37.1099,-5.48215 -14.338,-5.90385 -23.1938,-17.28986 -8.8557,-11.38601 -12.6511,-27.83247 -3.3736,-16.86816 -3.3736,-38.79677 V 172.56384 l 39.2185,-6.74726 z m -91.9308,109.64305 q 0,26.14565 -7.5906,47.23085 -7.5907,21.0852 -21.5069,36.26654 -13.4946,15.18135 -32.4713,23.61543 -18.9766,8.01237 -41.3269,8.01237 -22.3504,0 -41.327,-8.01237 -18.9767,-8.43408 -32.893,-23.61543 -13.4945,-15.18134 -21.0852,-36.26654 -7.5906,-21.0852 -7.5906,-47.23085 0,-25.72395 7.5906,-46.80915 7.5907,-21.5069 21.0852,-36.68825 13.9163,-15.18134 32.893,-23.19372 18.9766,-8.43408 41.327,-8.43408 22.3503,0 41.3269,8.43408 18.9767,8.01238 32.4713,23.19372 13.9162,15.18135 21.5069,36.68825 7.5906,21.0852 7.5906,46.80915 z m -40.9053,0 q 0,-37.10996 -16.8681,-58.61686 -16.4465,-21.92861 -45.1223,-21.92861 -28.6759,0 -45.5441,21.92861 -16.4464,21.5069 -16.4464,58.61686 0,37.10995 16.4464,59.03856 16.8682,21.5069 45.5441,21.5069 28.6758,0 45.1223,-21.5069 16.8681,-21.92861 16.8681,-59.03856 z M 1533.6929,240.03648 q 13.4946,-3.37363 35.4232,-7.16896 22.3503,-3.79534 51.4479,-3.79534 21.0852,0 35.4231,5.90386 14.3379,5.48215 24.0371,16.44645 2.9519,-2.10852 9.2775,-5.90385 6.3256,-3.79534 15.6031,-7.16897 9.2774,-3.79534 20.6634,-6.32556 11.3861,-2.95193 24.4589,-2.95193 25.3022,0 41.327,7.59067 16.0247,7.16897 24.8805,20.6635 9.2775,13.49453 12.2294,32.0495 3.3737,18.55498 3.3737,40.48359 v 123.13757 h -39.2185 V 338.29352 q 0,-19.39839 -2.1085,-33.31462 -1.6868,-13.91623 -7.169,-23.19372 -5.0604,-9.27749 -14.3379,-13.49453 -8.8558,-4.63874 -23.1938,-4.63874 -19.82,0 -32.8929,5.48215 -12.6511,5.06045 -17.2898,9.27749 3.3736,10.9643 5.0604,24.03713 1.6868,13.07282 1.6868,27.41076 v 123.13757 h -39.2184 V 338.29352 q 0,-19.39839 -2.1086,-33.31462 -2.1085,-13.91623 -7.5906,-23.19372 -5.0605,-9.27749 -14.338,-13.49453 -8.8558,-4.63874 -22.772,-4.63874 -5.9038,0 -12.6511,0.4217 -6.7473,0.42171 -13.0728,1.26511 -5.9039,0.42171 -10.9643,1.26512 -5.0605,0.8434 -6.7473,1.26511 v 185.12806 h -39.2185 z m -145.9093,184.70636 q 13.9163,0 24.4589,-0.4217 10.9643,-0.84341 18.1332,-2.53023 v -65.36412 q -4.217,-2.10852 -13.9162,-3.37363 -9.2775,-1.68682 -22.772,-1.68682 -8.8558,0 -18.9767,1.26511 -9.6992,1.26512 -18.1333,5.48216 -8.0124,3.79533 -13.4945,10.9643 -5.4822,6.74727 -5.4822,18.13327 0,21.0852 13.4946,29.51928 13.4945,8.01238 36.6882,8.01238 z M 1384.41,228.22877 q 23.6154,0 39.6402,6.32556 16.4464,5.90386 26.1456,17.28987 10.1209,10.9643 14.3379,26.56735 4.2171,15.18134 4.2171,33.73632 v 137.0538 q -5.0605,0.84341 -14.3379,2.53023 -8.8558,1.26511 -20.2418,2.53022 -11.386,1.26511 -24.8806,2.10852 -13.0728,1.26511 -26.1456,1.26511 -18.555,0 -34.158,-3.79533 -15.6031,-3.79534 -26.9891,-11.80771 -11.386,-8.43409 -17.7116,-21.92861 -6.3255,-13.49453 -6.3255,-32.47121 0,-18.13327 7.1689,-31.2061 7.5907,-13.07282 20.2418,-21.0852 12.6511,-8.01238 29.5193,-11.80771 16.8682,-3.79534 35.4231,-3.79534 5.9039,0 12.2295,0.84341 6.3255,0.4217 11.8077,1.68682 5.9038,0.8434 10.1209,1.68681 4.217,0.84341 5.9038,1.26511 v -10.9643 q 0,-9.69919 -2.1085,-18.97668 -2.1085,-9.69919 -7.5907,-16.86816 -5.4821,-7.59067 -15.1813,-11.80771 -9.2775,-4.63875 -24.4588,-4.63875 -19.3984,0 -34.1581,2.95193 -14.3379,2.53022 -21.5069,5.48215 l -4.6387,-32.47121 q 7.5907,-3.37363 25.3022,-6.32556 17.7116,-3.37363 38.3751,-3.37363 z m -120.1852,228.98528 q -36.2665,-0.84341 -51.4478,-15.60305 -15.1814,-14.75964 -15.1814,-45.96574 v -263.1433 l 39.2185,-6.74726 v 263.565 q 0,9.6992 1.6868,16.02476 1.6868,6.32556 5.4822,10.12089 3.7953,3.79534 10.1208,5.90386 6.3256,1.68681 15.6031,2.95193 z M 1152.0517,160.75613 q -13.0728,14.33794 -29.5193,32.04951 -16.4464,17.28986 -34.5797,35.84484 -17.7116,18.13327 -35.4232,35.84484 -17.7115,17.71157 -33.3146,32.89291 18.1333,12.65112 38.3751,31.2061 20.2418,18.55497 39.6402,39.64017 19.3984,21.0852 36.2665,43.01381 17.2899,21.92861 28.6759,41.7487 h -48.0743 q -12.6511,-19.82009 -29.0975,-39.64018 -16.4465,-20.24179 -35.0015,-38.37506 -18.1333,-18.55498 -37.1099,-34.15803 -18.55501,-15.60305 -36.26658,-26.56735 V 452.99701 H 935.71753 V 160.75613 h 40.90529 v 129.04143 q 14.75964,-13.91623 32.47118,-31.2061 17.7116,-17.71157 35.0015,-35.42314 17.2898,-17.71156 32.4712,-33.73632 15.603,-16.44645 26.1456,-28.67587 z" /></svg>
